<svg xmlns="http://www.w3.org/2000/svg" xmlns:xlink="http://www.w3.org/1999/xlink" id="Layer_1" x="0px" y="0px" width="85.2px" height="84.5px" viewBox="0 0 85.2 84.5" xml:space="preserve"><g>	<g id="Layer_2_1_">		<g id="_&#xCE;&#xD3;&#xC8;_2">							<linearGradient id="SVGID_1_" gradientUnits="userSpaceOnUse" x1="56.9919" y1="682.1577" x2="56.9919" y2="758.3471" gradientTransform="matrix(1 0 0 1 0 -673.8479)">				<stop offset="0" style="stop-color:#009EE0"></stop>				<stop offset="0.31" style="stop-color:#009CDD"></stop>				<stop offset="0.5" style="stop-color:#0096D5"></stop>				<stop offset="0.65" style="stop-color:#008CC7"></stop>				<stop offset="0.79" style="stop-color:#007EB3"></stop>				<stop offset="0.91" style="stop-color:#006B99"></stop>				<stop offset="1" style="stop-color:#005A80"></stop>			</linearGradient>			<path fill="url(#SVGID_1_)" d="M54.3,13.9h0.9l-3.6-5.6L48,13.9h0.8c0.1,21.9-1,54.6,6.1,70.6H66C52.9,68.7,54.2,43.3,54.3,13.9z    "></path>							<linearGradient id="SVGID_2_" gradientUnits="userSpaceOnUse" x1="71.0584" y1="690.4674" x2="71.0584" y2="758.3471" gradientTransform="matrix(1 0 0 1 0 -673.8479)">				<stop offset="0" style="stop-color:#FF0099"></stop>				<stop offset="0.27" style="stop-color:#FC0097"></stop>				<stop offset="0.43" style="stop-color:#F40092"></stop>				<stop offset="0.57" style="stop-color:#E6008A"></stop>				<stop offset="0.69" style="stop-color:#D2007E"></stop>				<stop offset="0.8" style="stop-color:#B7006E"></stop>				<stop offset="0.9" style="stop-color:#97005B"></stop>				<stop offset="0.99" style="stop-color:#710045"></stop>				<stop offset="1" style="stop-color:#6D0042"></stop>			</linearGradient>			<path fill="url(#SVGID_2_)" d="M63.2,22.2h0.9l-3.6-5.6l-3.6,5.6h0.9c0,41.4,7,50.6,15,62.3h12.4C70.7,71.2,63.2,63.7,63.2,22.2z    "></path>							<linearGradient id="SVGID_3_" gradientUnits="userSpaceOnUse" x1="42.6" y1="673.848" x2="42.6" y2="758.3471" gradientTransform="matrix(1 0 0 1 0 -673.8479)">				<stop offset="0" style="stop-color:#FF0000"></stop>				<stop offset="0.3" style="stop-color:#FC0000"></stop>				<stop offset="0.48" style="stop-color:#F40000"></stop>				<stop offset="0.62" style="stop-color:#E60000"></stop>				<stop offset="0.75" style="stop-color:#D20000"></stop>				<stop offset="0.87" style="stop-color:#B70000"></stop>				<stop offset="0.98" style="stop-color:#970000"></stop>				<stop offset="1" style="stop-color:#920000"></stop>			</linearGradient>			<path fill="url(#SVGID_3_)" d="M45.3,5.6h0.9L42.5,0l-3.6,5.6h0.9c0,0,0.4,51.4-0.6,63.5c-1,12.2-2.3,15.4-2.3,15.4h11.2    c0,0-1.3-3.2-2.3-15.4S45.3,5.6,45.3,5.6z"></path>							<linearGradient id="SVGID_4_" gradientUnits="userSpaceOnUse" x1="28.2331" y1="682.1577" x2="28.2331" y2="758.3471" gradientTransform="matrix(1 0 0 1 0 -673.8479)">				<stop offset="0" style="stop-color:#33D900"></stop>				<stop offset="0.31" style="stop-color:#32D600"></stop>				<stop offset="0.5" style="stop-color:#30CE00"></stop>				<stop offset="0.66" style="stop-color:#2DC000"></stop>				<stop offset="0.79" style="stop-color:#28AC00"></stop>				<stop offset="0.92" style="stop-color:#229200"></stop>				<stop offset="1" style="stop-color:#1D7C00"></stop>			</linearGradient>			<path fill="url(#SVGID_4_)" d="M36.4,13.9h0.8l-3.6-5.6L30,13.9h0.9c0.1,29.4,1.4,54.8-11.7,70.6h11.2    C37.4,68.5,36.3,35.8,36.4,13.9z"></path>							<linearGradient id="SVGID_5_" gradientUnits="userSpaceOnUse" x1="14.1416" y1="690.4674" x2="14.1416" y2="758.3471" gradientTransform="matrix(1 0 0 1 0 -673.8479)">				<stop offset="0" style="stop-color:#FFFF00"></stop>				<stop offset="0.34" style="stop-color:#FCFC00"></stop>				<stop offset="0.54" style="stop-color:#F4F400"></stop>				<stop offset="0.71" style="stop-color:#E6E600"></stop>				<stop offset="0.86" style="stop-color:#D2D200"></stop>				<stop offset="0.99" style="stop-color:#B8B800"></stop>				<stop offset="1" style="stop-color:#B6B600"></stop>			</linearGradient>			<path fill="url(#SVGID_5_)" d="M28.3,22.2l-3.6-5.6L21,22.2h0.9c0,41.4-7.5,49-21.9,62.3h12.4c8.1-11.7,15-20.8,15-62.3H28.3z"></path>		</g>		<g id="_&#xCE;&#xD3;&#xC8;_5">			<g opacity="0.5">									<linearGradient id="SVGID_6_" gradientUnits="userSpaceOnUse" x1="51.5605" y1="714.9747" x2="51.5605" y2="674.0223" gradientTransform="matrix(1 0 0 1 0 -673.8479)">					<stop offset="0" style="stop-color:#FFFFFF"></stop>					<stop offset="1" style="stop-color:#000000"></stop>				</linearGradient>				<path fill="url(#SVGID_6_)" d="M54.3,13.9h0.9l-3.6-5.6L48,13.9h0.8c0,7.9-0.1,17.2,0.1,26.6c1.9-0.2,3.7-0.4,5.5-0.6     C54.1,31.8,54.2,23,54.3,13.9z"></path>									<linearGradient id="SVGID_7_" gradientUnits="userSpaceOnUse" x1="60.521" y1="714.9747" x2="60.521" y2="674.0223" gradientTransform="matrix(1 0 0 1 0 -673.8479)">					<stop offset="0" style="stop-color:#FFFFFF"></stop>					<stop offset="1" style="stop-color:#000000"></stop>				</linearGradient>				<path fill="url(#SVGID_7_)" d="M64.1,22.2l-3.6-5.6l-3.6,5.6h0.9c0,6.5,0.2,12.3,0.5,17.3c1.9-0.2,3.7-0.5,5.6-0.7     c-0.4-4.9-0.5-10.4-0.5-16.6C63.3,22.2,64.1,22.2,64.1,22.2z"></path>									<linearGradient id="SVGID_8_" gradientUnits="userSpaceOnUse" x1="42.575" y1="714.9747" x2="42.575" y2="674.0223" gradientTransform="matrix(1 0 0 1 0 -673.8479)">					<stop offset="0" style="stop-color:#FFFFFF"></stop>					<stop offset="1" style="stop-color:#000000"></stop>				</linearGradient>				<path fill="url(#SVGID_8_)" d="M45.3,5.6h0.9L42.5,0l-3.6,5.6h0.9c0,0,0.2,18.3,0.1,35.7c1.8-0.2,3.6-0.3,5.4-0.5     C45.2,23.6,45.3,5.6,45.3,5.6z"></path>									<linearGradient id="SVGID_9_" gradientUnits="userSpaceOnUse" x1="33.6395" y1="714.9747" x2="33.6395" y2="674.0223" gradientTransform="matrix(1 0 0 1 0 -673.8479)">					<stop offset="0" style="stop-color:#FFFFFF"></stop>					<stop offset="1" style="stop-color:#000000"></stop>				</linearGradient>				<path fill="url(#SVGID_9_)" d="M36.4,13.9h0.8l-3.6-5.6L30,13.9h0.9c0.1,9.9,0.2,19.2-0.1,28c1.9-0.1,3.7-0.2,5.6-0.4     C36.5,31.8,36.4,22.1,36.4,13.9z"></path>									<linearGradient id="SVGID_10_" gradientUnits="userSpaceOnUse" x1="24.6539" y1="714.9747" x2="24.6539" y2="674.0223" gradientTransform="matrix(1 0 0 1 0 -673.8479)">					<stop offset="0" style="stop-color:#FFFFFF"></stop>					<stop offset="1" style="stop-color:#000000"></stop>				</linearGradient>				<path fill="url(#SVGID_10_)" d="M28.3,22.2l-3.6-5.6L21,22.2h0.9c0,7.9-0.3,14.5-0.8,20.1c1.9-0.1,3.8-0.2,5.7-0.3     c0.5-5.7,0.7-12.2,0.7-19.9L28.3,22.2z"></path>			</g>		</g>	</g></g></svg>