<svg xmlns="http://www.w3.org/2000/svg" xmlns:xlink="http://www.w3.org/1999/xlink" id="Layer_1" x="0px" y="0px" width="85.7px" height="84.5px" viewBox="0 0 85.7 84.5" xml:space="preserve"><g id="Layer_2_1_">	<g id="Capa_1">		<path fill="#A4B908" d="M69.1,33.6L69.1,33.6c3.2,0,6.4,0.4,9.5,1.1C91.1,37.5,83.2,48,83.2,48C80,58,53.6,66.4,53.6,66.4   L69.1,33.6z"></path>		<path fill="#A4B908" d="M69.1,33.6L69.1,33.6c-3.2,0-6.4,0.4-9.5,1.1c-12.5,2.9-18.8,10.6-18.8,10.6c6.3-5.7,17.9-3.5,20.2,1.6   c4.8,10.5-7.5,19.5-7.5,19.5L69.1,33.6z"></path>		<path fill="#083755" d="M78.8,34c0,0,4.1,4.6,4.2,7.1c0.1,2.6-3.2,5.8-4.2,5.1s-1.7-4.9-1.7-4.9s-0.5,1.2-1.2,1.9   c-0.8,0.8-2.3,0.6-1.3-1.3c1-1.9,0.3-4.7,0.8-6.1C75.8,34.6,78.8,34,78.8,34z"></path>		<path fill="#E76329" d="M16.6,33.6L16.6,33.6c-3.2,0-6.4,0.4-9.5,1.1C-5.4,37.5,2.4,48,2.4,48c3.2,10,29.7,18.3,29.7,18.3   L16.6,33.6z"></path>		<path fill="#E76329" d="M16.6,33.6L16.6,33.6c3.2,0,6.4,0.4,9.5,1.1c12.5,2.9,18.8,10.6,18.8,10.6c-6.3-5.7-17.9-3.5-20.2,1.6   c-4.8,10.5,7.5,19.5,7.5,19.5L16.6,33.6z"></path>		<path fill="#083755" d="M79.9,35c-2.2-3.3-9.3-6.6-25-10.2C51,23.9,47,23.4,43,23.5l0,0c-4,0-8,0.5-11.9,1.3   c-15.8,3.7-23,7-25.2,10.2s22.9-3.8,26.8,5.1c2.6,6,0.7,19.1,0.7,19.1h18.9c0,0-2-13.1,0.7-19.1C57,31.3,82,38.3,79.9,35z"></path>		<path fill="#083755" d="M42.6,26.2c-6.9,0-12.5-5.6-12.5-12.5S35.7,1.3,42.6,1.3s12.5,5.6,12.5,12.5l0,0   C55.1,20.7,49.5,26.2,42.6,26.2z"></path>		<path fill="#FFFFFF" d="M42.6,2.5c6.2,0,11.2,5,11.2,11.2S48.8,25,42.6,25s-11.2-5-11.2-11.2l0,0C31.3,7.5,36.4,2.5,42.6,2.5    M42.6,0C35,0,28.8,6.2,28.8,13.8S35,27.5,42.6,27.5s13.8-6.2,13.8-13.8l0,0C56.4,6.2,50.2,0,42.6,0z"></path>		<path fill="#E76329" d="M16.6,35.5c-5.4,0-9.7-4.3-9.7-9.7s4.3-9.7,9.7-9.7s9.7,4.3,9.7,9.7S21.9,35.5,16.6,35.5z"></path>		<path fill="#FFFFFF" d="M16.6,17.4c4.7,0,8.4,3.8,8.4,8.4s-3.8,8.4-8.4,8.4s-8.4-3.8-8.4-8.4l0,0C8.1,21.2,11.9,17.4,16.6,17.4    M16.6,14.9c-6,0-10.9,4.9-10.9,10.9s4.9,10.9,10.9,10.9s10.9-4.9,10.9-10.9l0,0C27.5,19.8,22.6,14.9,16.6,14.9L16.6,14.9z"></path>		<path fill="#083755" d="M6.8,34c0,0-4.1,4.6-4.2,7.1c-0.1,2.6,3.2,5.8,4.2,5.1s1.7-4.9,1.7-4.9s0.5,1.2,1.2,1.9   c0.8,0.8,2.3,0.6,1.3-1.3c-1-1.9-0.3-4.7-0.8-6.1C9.8,34.6,6.8,34,6.8,34z"></path>		<path fill="#A4B908" d="M69.7,35.5c-5.4,0-9.7-4.3-9.7-9.7s4.3-9.7,9.7-9.7s9.7,4.3,9.7,9.7l0,0C79.4,31.2,75,35.5,69.7,35.5z"></path>		<path fill="#FFFFFF" d="M69.7,17.4c4.7,0,8.4,3.8,8.4,8.4s-3.8,8.4-8.4,8.4s-8.4-3.8-8.4-8.4l0,0C61.2,21.2,65,17.4,69.7,17.4    M69.7,14.9c-6,0-10.9,4.9-10.9,10.9s4.9,10.9,10.9,10.9s10.9-4.9,10.9-10.9l0,0C80.6,19.8,75.7,14.9,69.7,14.9z"></path>		<path fill="#E76329" d="M23.7,45.8c0,0,8.3,8.5,12,8.8c0,0-1.5,4.7-1.8,7.3l-16.3-7.2L23.7,45.8z"></path>		<path fill="#A4B908" d="M50.8,55.2c-0.9-0.4-2.4-0.3-3.9-0.4c0,0-6.8,2.6-7.5,3.6c-0.6,0.8,1.2,3.1,3.3,4.2H47   c2.7-1.2,5.7-3.6,5.7-3.6S52.1,55.7,50.8,55.2z"></path>		<path fill="#A4B908" d="M62.9,45.8c0,0-8.3,8.5-12,8.8c0,0,1.5,4.7,1.8,7.3l16.2-7.2L62.9,45.8z"></path>		<path fill="#E76329" d="M33.9,59c0,0,5.7,4.3,8.5,4.2s7.7-1.1,7-2.1c-3.8-0.2-4.8-4.3-4.8-4.3s1.3-0.6,2-1.4   c0.8-0.9,0.6-2.5-1.4-1.4c-2,1.2-7.8,0.6-9.3,1.1C34.4,55.7,33.9,59,33.9,59z"></path>		<path fill="#A4B908" d="M45.7,58l1.9-1.3l-0.8-1.9c-0.9,0.5-2.1,1-3,1c-2.3,0.1-1.6,1.6-0.5,1.9C44.2,57.9,44.9,58,45.7,58z"></path>		<path fill="#A4B908" d="M36.8,60.9c0.7,0.1,0.4,0.2,1.6-0.3c1.2-0.4,5.3,2,4.5,2.6C42,63.9,36.7,62.3,36.8,60.9z"></path>	</g></g></svg>